<?xml version="1.0" standalone="no"?>
<!DOCTYPE svg PUBLIC "-//W3C//DTD SVG 20010904//EN"
 "http://www.w3.org/TR/2001/REC-SVG-20010904/DTD/svg10.dtd">
<svg version="1.0" xmlns="http://www.w3.org/2000/svg"
 width="256.000000pt" height="256.000000pt" viewBox="0 0 256.000000 256.000000"
 preserveAspectRatio="xMidYMid meet">

<g transform="translate(0.000000,256.000000) scale(0.100000,-0.100000)"
fill="#000000" stroke="none">
<path d="M1175 2554 c-316 -34 -580 -158 -795 -374 -247 -247 -373 -551 -373
-900 0 -612 419 -1124 1026 -1251 132 -28 342 -30 471 -5 270 52 486 166 676
356 247 246 373 552 373 900 0 348 -126 654 -373 900 -188 188 -413 307 -668
354 -87 17 -269 27 -337 20z m315 -739 c0 -33 -2 -35 -35 -35 -33 0 -35 2 -35
35 0 33 2 35 35 35 33 0 35 -2 35 -35z m410 0 c0 -33 -2 -35 -35 -35 -33 0
-35 2 -35 35 0 33 2 35 35 35 33 0 35 -2 35 -35z m100 -655 l0 -520 -720 0
-720 0 0 520 0 520 720 0 720 0 0 -520z"/>
<path d="M858 1483 l-188 -104 0 -44 c0 -29 -5 -45 -16 -49 -11 -4 -14 -18
-12 -58 3 -46 6 -53 26 -56 16 -2 22 -10 22 -27 0 -13 5 -27 10 -30 14 -9 12
-207 -2 -255 -10 -30 -18 -40 -38 -42 -23 -3 -25 -7 -25 -48 l0 -45 425 0 425
0 0 45 c0 42 -2 45 -27 48 -22 3 -28 9 -28 27 0 13 -4 27 -10 30 -6 4 -10 55
-10 120 0 65 4 116 10 120 6 3 10 17 10 30 0 17 6 25 23 27 19 3 22 10 25 56
2 40 -1 54 -12 58 -11 4 -16 19 -16 49 l0 43 -190 106 c-105 58 -196 106 -203
105 -7 0 -96 -48 -199 -106z m388 -29 c172 -95 174 -97 174 -130 l0 -34 -360
0 -360 0 0 34 c0 33 2 35 173 130 94 52 178 96 186 96 7 0 92 -43 187 -96z
m204 -224 c0 -20 -7 -20 -390 -20 -383 0 -390 0 -390 20 0 20 7 20 390 20 383
0 390 0 390 -20z m-650 -75 c0 -10 -11 -15 -35 -15 -24 0 -35 5 -35 15 0 10
11 15 35 15 24 0 35 -5 35 -15z m90 -9 c0 -14 5 -28 10 -31 6 -4 10 -55 10
-120 0 -65 -4 -116 -10 -120 -5 -3 -10 -17 -10 -31 0 -20 -5 -24 -30 -24 -25
0 -30 4 -30 24 0 14 -4 28 -10 31 -6 4 -10 55 -10 120 0 65 4 116 10 120 6 3
10 17 10 31 0 20 5 24 30 24 25 0 30 -4 30 -24z m108 12 c-7 -20 -68 -23 -68
-4 0 12 10 16 36 16 24 0 34 -4 32 -12z m92 -12 c0 -14 5 -28 10 -31 6 -4 10
-55 10 -120 0 -65 -4 -116 -10 -120 -5 -3 -10 -17 -10 -31 0 -20 -5 -24 -30
-24 -25 0 -30 4 -30 24 0 14 -4 28 -10 31 -6 4 -10 55 -10 120 0 65 4 116 10
120 6 3 10 17 10 31 0 20 5 24 30 24 25 0 30 -4 30 -24z m100 8 c0 -11 -8 -14
-32 -12 -46 4 -49 28 -4 28 26 0 36 -4 36 -16z m100 -8 c0 -14 5 -28 10 -31 6
-4 10 -55 10 -120 0 -65 -4 -116 -10 -120 -5 -3 -10 -17 -10 -31 0 -20 -5 -24
-30 -24 -25 0 -30 4 -30 24 0 14 -4 28 -10 31 -6 4 -10 55 -10 120 0 65 4 116
10 120 6 3 10 17 10 31 0 20 5 24 30 24 25 0 30 -4 30 -24z m100 9 c0 -10 -11
-15 -35 -15 -24 0 -35 5 -35 15 0 10 11 15 35 15 24 0 35 -5 35 -15z m-610
-160 c0 -108 -1 -115 -20 -115 -19 0 -20 7 -20 115 0 108 1 115 20 115 19 0
20 -7 20 -115z m200 0 c0 -108 -1 -115 -20 -115 -19 0 -20 7 -20 115 0 108 1
115 20 115 19 0 20 -7 20 -115z m200 0 c0 -108 -1 -115 -20 -115 -19 0 -20 7
-20 115 0 108 1 115 20 115 19 0 20 -7 20 -115z m200 0 c0 -108 -1 -115 -20
-115 -19 0 -20 7 -20 115 0 108 1 115 20 115 19 0 20 -7 20 -115z m-580 -160
c0 -10 -11 -15 -35 -15 -24 0 -35 5 -35 15 0 10 11 15 35 15 24 0 35 -5 35
-15z m198 -2 c2 -9 -8 -13 -32 -13 -26 0 -36 4 -36 16 0 19 61 16 68 -3z m192
2 c0 -10 -11 -15 -35 -15 -33 0 -43 8 -28 23 13 14 63 7 63 -8z m200 0 c0 -10
-11 -15 -35 -15 -33 0 -43 8 -28 23 13 14 63 7 63 -8z m70 -65 c0 -6 -140 -10
-400 -10 -260 0 -400 4 -400 10 0 7 140 10 400 10 260 0 400 -3 400 -10z"/>
<path d="M1044 1515 c-3 -8 -14 -17 -24 -20 -37 -12 -36 -69 1 -80 11 -4 19
-16 19 -29 0 -19 -4 -22 -25 -18 -36 6 -31 -13 10 -37 l36 -21 29 22 c16 11
32 28 35 36 6 16 -20 62 -35 62 -6 0 -10 9 -10 20 0 14 6 19 21 17 35 -3 32
16 -6 41 -41 26 -44 26 -51 7z m-7 -67 c-3 -8 -6 -5 -6 6 -1 11 2 17 5 13 3
-3 4 -12 1 -19z"/>
<path d="M910 1395 c0 -10 10 -15 30 -15 20 0 30 5 30 15 0 10 -10 15 -30 15
-20 0 -30 -5 -30 -15z"/>
<path d="M1150 1395 c0 -10 10 -15 30 -15 20 0 30 5 30 15 0 10 -10 15 -30 15
-20 0 -30 -5 -30 -15z"/>
<path d="M1543 1448 c3 -10 50 -13 192 -13 142 0 189 3 193 13 3 9 -40 12
-193 12 -153 0 -196 -3 -192 -12z"/>
<path d="M1547 1344 c-20 -20 7 -24 151 -22 204 4 207 22 4 26 -82 1 -151 -1
-155 -4z"/>
<path d="M1543 1218 c3 -10 50 -13 192 -13 142 0 189 3 193 13 3 9 -40 12
-193 12 -153 0 -196 -3 -192 -12z"/>
<path d="M1544 1037 c-3 -8 -4 -39 -2 -68 l3 -54 109 -3 c97 -2 111 -5 124
-23 9 -13 20 -18 33 -14 11 4 31 0 44 -9 32 -21 32 -21 55 17 26 41 25 44 -7
61 -20 10 -31 26 -38 58 l-11 43 -152 3 c-123 2 -153 0 -158 -11z m276 -77 c0
-6 15 -18 34 -27 21 -9 32 -21 29 -29 -4 -11 -14 -9 -46 9 -49 26 -60 39 -44
49 17 11 27 10 27 -2z"/>
</g>
</svg>
