<?xml version="1.0" standalone="no"?>
<!DOCTYPE svg PUBLIC "-//W3C//DTD SVG 20010904//EN"
 "http://www.w3.org/TR/2001/REC-SVG-20010904/DTD/svg10.dtd">
<svg version="1.0" xmlns="http://www.w3.org/2000/svg"
 width="512.000000pt" height="512.000000pt" viewBox="0 0 512.000000 512.000000"
 preserveAspectRatio="xMidYMid meet">

<g transform="translate(0.000000,512.000000) scale(0.100000,-0.100000)"
fill="#000000" stroke="none">
<path d="M2371 5110 c-501 -42 -952 -212 -1346 -507 -422 -317 -737 -758 -898
-1259 -138 -428 -159 -899 -61 -1344 210 -953 981 -1724 1934 -1934 367 -81
756 -81 1120 0 380 85 739 258 1050 508 123 98 329 313 430 447 341 455 513
971 513 1539 0 213 -16 366 -59 560 -232 1044 -1101 1837 -2164 1974 -150 20
-388 27 -519 16z m1329 -1760 l0 -610 -1120 0 -1120 0 0 610 0 610 1120 0
1120 0 0 -610z m-1696 -806 c24 -24 24 -409 -1 -436 -20 -22 -46 -23 -67 -2
-14 13 -16 48 -16 223 0 148 3 210 12 219 17 17 54 15 72 -4z m1216 -3 c6 -12
10 -98 10 -211 0 -113 -4 -199 -10 -211 -12 -22 -59 -26 -78 -7 -15 15 -17
400 -2 429 7 12 21 19 40 19 19 0 33 -7 40 -19z m-612 -177 c21 -15 22 -21 22
-170 0 -88 -4 -164 -10 -175 -7 -12 -21 -19 -40 -19 -19 0 -33 7 -40 19 -6 11
-10 87 -10 175 0 149 1 155 22 170 12 9 25 16 28 16 3 0 16 -7 28 -16z m-963
-769 l0 -420 -237 -3 -238 -2 0 418 c0 230 3 422 7 426 4 3 110 5 237 4 l231
-3 0 -420z m1340 221 c73 -4 130 -31 174 -82 33 -37 58 -81 50 -88 -2 -3 -108
-16 -234 -31 -127 -15 -236 -31 -242 -37 -19 -15 -16 -56 5 -67 12 -6 149 6
432 40 469 57 531 58 621 16 62 -30 152 -103 146 -120 -2 -6 -349 -73 -773
-148 l-769 -138 -332 116 -333 116 0 177 0 177 158 40 157 40 440 -4 c242 -2
467 -5 500 -7z"/>
<path d="M1756 3842 c-3 -5 -10 -31 -16 -58 -19 -84 -82 -154 -138 -154 -10 0
-26 -8 -35 -18 -15 -16 -17 -49 -17 -256 0 -138 4 -245 10 -256 5 -10 24 -22
42 -25 18 -4 45 -16 59 -26 30 -21 74 -105 86 -164 l8 -40 825 0 824 0 9 35
c22 92 28 107 57 142 17 21 46 42 68 48 20 7 43 19 49 28 10 12 13 78 13 252
0 256 -5 280 -55 280 -53 0 -110 77 -131 175 l-9 40 -822 3 c-452 1 -824 -2
-827 -6z m1580 -89 c28 -90 98 -180 153 -198 21 -6 21 -11 21 -205 l0 -198
-24 -6 c-50 -13 -124 -116 -152 -213 -3 -10 -162 -13 -752 -13 l-749 0 -22 60
c-25 67 -101 155 -145 166 l-26 6 0 198 0 198 26 6 c41 11 117 95 144 159 l24
57 748 0 c704 0 749 -1 754 -17z"/>
<path d="M2536 3664 c-9 -8 -16 -30 -16 -48 0 -27 -5 -34 -33 -44 -52 -19 -79
-54 -85 -110 -9 -99 47 -152 161 -152 83 0 107 -11 107 -48 0 -46 -15 -52
-135 -52 -117 0 -135 -6 -135 -45 0 -33 20 -45 72 -45 44 0 48 -2 48 -24 0
-54 33 -86 70 -66 15 8 20 21 20 50 0 31 4 40 17 40 9 0 36 9 59 20 87 43 99
157 24 225 -17 16 -41 21 -112 26 -73 4 -93 9 -104 24 -18 24 -18 36 0 61 13
17 29 19 135 22 119 4 121 4 127 28 10 40 -11 54 -82 54 l-64 0 0 38 c0 58
-39 82 -74 46z"/>
<path d="M1754 3376 c-12 -31 0 -61 27 -64 33 -4 53 20 45 53 -5 20 -13 25
-37 25 -16 0 -32 -6 -35 -14z"/>
<path d="M1892 3378 c-18 -18 -14 -56 7 -68 11 -5 76 -10 145 -10 100 0 128 3
140 16 9 8 16 22 16 29 0 7 -7 21 -16 29 -12 13 -41 16 -148 16 -89 0 -136 -4
-144 -12z"/>
<path d="M2968 3379 c-22 -12 -23 -42 -2 -63 23 -23 265 -23 288 0 22 21 20
51 -3 64 -25 13 -260 13 -283 -1z"/>
<path d="M3342 3378 c-29 -29 -3 -72 40 -66 19 2 23 9 23 38 0 30 -4 35 -25
38 -14 2 -31 -3 -38 -10z"/>
</g>
</svg>
