<?xml version="1.0" encoding="UTF-8"?>
<svg version="1.1" xmlns="http://www.w3.org/2000/svg" width="500" height="500">
<path d="M0 0 C1.16993752 0.41539032 1.16993752 0.41539032 2.36351013 0.83917236 C4.75886062 1.70793581 7.13976047 2.60899632 9.51953125 3.51953125 C10.40353607 3.85452133 11.28754089 4.18951141 12.19833374 4.53465271 C15.07095569 5.6240515 17.94172584 6.71824231 20.8125 7.8125 C22.83035802 8.57878505 24.84834479 9.34473114 26.86645508 10.11035156 C30.95877345 11.66329506 35.05043773 13.21794337 39.14160156 14.77392578 C44.42262399 16.78172354 49.70655127 18.78172771 54.9921875 20.77734375 C75.34891455 28.46404812 95.68525626 36.20300788 116 44 C117.58312988 44.60642334 117.58312988 44.60642334 119.19824219 45.22509766 C121.82082659 46.2304069 124.44202407 47.2392102 127.0625 48.25 C127.78268311 48.52577881 128.50286621 48.80155762 129.24487305 49.08569336 C133.88397283 50.88397283 133.88397283 50.88397283 135 52 C135.10238494 53.54008095 135.13519439 55.08483959 135.14044189 56.62831116 C135.14615204 57.62994293 135.15186218 58.63157471 135.15774536 59.66355896 C135.15886322 60.77239944 135.15998108 61.88123993 135.16113281 63.02368164 C135.16609772 64.18496582 135.17106262 65.34625 135.17617798 66.54272461 C135.18832539 69.74459387 135.19575903 72.94642652 135.20018864 76.14831471 C135.20312252 78.15845917 135.2072287 80.16859795 135.21169281 82.17873955 C135.22540014 88.49418011 135.23504177 94.80960763 135.2388947 101.12506205 C135.24333506 108.36159025 135.26067846 115.59792574 135.2898953 122.83439547 C135.31177254 128.45343164 135.32161316 134.07241481 135.32293582 139.69149297 C135.32396876 143.03242439 135.33106237 146.37303449 135.34775543 149.71394539 C135.55732548 194.95659913 127.53178584 240.87797543 100 278 C99.3296875 278.91265625 98.659375 279.8253125 97.96875 280.765625 C77.49326996 307.06874167 49.92194812 325.98617468 19 338 C17.93845703 338.41507812 16.87691406 338.83015625 15.78320312 339.2578125 C12.24561035 340.61339427 8.69086306 341.90828731 5.125 343.1875 C3.44929932 343.8230481 3.44929932 343.8230481 1.73974609 344.47143555 C-6.49792455 347.30706472 -11.86235885 346.90739263 -20 344 C-20.87881836 343.71906494 -21.75763672 343.43812988 -22.66308594 343.14868164 C-49.32144593 334.47841541 -74.14323758 321.85405547 -95 303 C-95.86753906 302.26394531 -96.73507813 301.52789062 -97.62890625 300.76953125 C-125.91915298 276.46382631 -142.0939474 240.60847626 -149.1875 204.625 C-149.34250977 203.84842041 -149.49751953 203.07184082 -149.65722656 202.27172852 C-153.10741583 183.64333731 -153.27205434 165.12359996 -153.1953125 146.23828125 C-153.19044611 143.50774749 -153.18863227 140.77721387 -153.18673706 138.04667664 C-153.18058013 131.64761046 -153.16424985 125.24861459 -153.14403808 118.84957904 C-153.12149615 111.55061738 -153.1106402 104.25165195 -153.10064721 96.95266402 C-153.07987673 81.96840386 -153.04481652 66.98420904 -153 52 C-151.58305283 51.36561327 -150.1655998 50.73235636 -148.74794006 50.0995636 C-147.95865144 49.74679509 -147.16936281 49.39402658 -146.35615635 49.03056812 C-142.9407498 47.53669056 -139.47751184 46.18650207 -135.99609375 44.85546875 C-135.25268738 44.56924652 -134.50928101 44.28302429 -133.74334717 43.98812866 C-131.30905749 43.05197693 -128.87335729 42.1195645 -126.4375 41.1875 C-124.70157226 40.52141998 -122.96565117 39.85532263 -121.22973633 39.18920898 C-107.59777948 33.96532061 -93.93274989 28.83136939 -80.25830078 23.7199707 C-67.59232826 18.98366499 -54.94770998 14.19274596 -42.3125 9.375 C-41.43081146 9.03888702 -40.54912292 8.70277405 -39.64071655 8.35647583 C-37.93093847 7.70453046 -36.22139296 7.05197474 -34.51210022 6.39875793 C-32.89188155 5.7814165 -31.27027628 5.1677 -29.64720154 4.5579071 C-26.13939726 3.23479098 -22.67472121 1.88145657 -19.26318359 0.32519531 C-18.1592627 -0.16110352 -17.0553418 -0.64740234 -15.91796875 -1.1484375 C-15.00168701 -1.58075684 -14.08540527 -2.01307617 -13.14135742 -2.45849609 C-8.31878749 -3.28980565 -4.52252463 -1.64832829 0 0 Z M-8 28 C-8 75.19 -8 122.38 -8 171 C30.61 171 69.22 171 109 171 C109.67834281 167.60828595 110.12474288 165.18498569 110.12025452 161.86808777 C110.12162918 161.07869812 110.12300385 160.28930847 110.12442017 159.47599792 C110.12082489 158.62435562 110.11722961 157.77271332 110.11352539 156.89526367 C110.11367142 155.98745148 110.11381744 155.07963928 110.1139679 154.14431763 C110.11327281 151.15217679 110.10549931 148.16009868 110.09765625 145.16796875 C110.09579064 143.09003229 110.09436741 141.01209538 110.09336853 138.93415833 C110.08955465 133.47122987 110.07973399 128.00832809 110.06866455 122.54541016 C110.05842616 116.96842815 110.05386571 111.39144182 110.04882812 105.81445312 C110.03811072 94.87629037 110.02104784 83.93814741 110 73 C103.95379425 69.89385443 103.95379425 69.89385443 97.68408203 67.28344727 C96.93222122 67.00487381 96.18036041 66.72630035 95.40571594 66.43928528 C94.61440781 66.1512352 93.82309967 65.86318512 93.0078125 65.56640625 C92.15716721 65.25229294 91.30652191 64.93817963 90.43009949 64.61454773 C88.60886239 63.94240401 86.78689615 63.27223317 84.96426392 62.60388184 C80.11450365 60.82509255 75.27038704 59.03105123 70.42578125 57.23828125 C69.45144638 56.87809906 68.47711151 56.51791687 67.47325134 56.14682007 C58.72889891 52.9100512 50.01564767 49.59570543 41.3125 46.25 C30.58907322 42.13208896 19.85642353 38.04045487 9.1031189 34.00109863 C7.66916266 33.46237742 6.23542322 32.92307874 4.8019104 32.38317871 C2.83603376 31.64304166 0.86934089 30.90512191 -1.09765625 30.16796875 C-2.21664307 29.74797607 -3.33562988 29.3279834 -4.48852539 28.89526367 C-6.71261193 27.94403772 -6.71261193 27.94403772 -8 28 Z M-127 173 C-127 211.31204469 -111.54287161 249.3590364 -84.5234375 276.515625 C-67.96535609 292.64914022 -34.31297293 316 -10 316 C-10 268.81 -10 221.62 -10 173 C-48.61 173 -87.22 173 -127 173 Z " fill="#6768F0" transform="translate(259,8)"/>
<path d="M0 0 C0.66 0 1.32 0 2 0 C3.32226562 1.34570312 3.32226562 1.34570312 4.90625 3.28125 C7.94611596 6.85608202 11.13841825 10.22838144 14.46875 13.53125 C15.20037354 14.2579187 15.20037354 14.2579187 15.94677734 14.99926758 C17.46256197 16.50150522 18.98082544 18.00119101 20.5 19.5 C22.51349523 21.48650296 24.52336722 23.476576 26.53125 25.46875 C27.41361328 26.33951172 28.29597656 27.21027344 29.20507812 28.10742188 C32.59805949 31.61895604 35.78455533 35.32520609 39 39 C39.33 26.79 39.66 14.58 40 2 C42.64 2 45.28 2 48 2 C48 20.81 48 39.62 48 59 C44.55824169 57.85274723 43.70880725 56.74715348 41.4375 54 C39.07789673 51.05040821 39.07789673 51.05040821 36 49 C36 48.34 36 47.68 36 47 C35.34 47 34.68 47 34 47 C34 46.34 34 45.68 34 45 C33.34 45 32.68 45 32 45 C32 44.34 32 43.68 32 43 C31.34 43 30.68 43 30 43 C30 42.34 30 41.68 30 41 C29.34 41 28.68 41 28 41 C28 40.34 28 39.68 28 39 C27.34 39 26.68 39 26 39 C26 38.34 26 37.68 26 37 C25.34 37 24.68 37 24 37 C24 36.34 24 35.68 24 35 C23.34 35 22.68 35 22 35 C22 34.34 22 33.68 22 33 C21.34 33 20.68 33 20 33 C20 32.34 20 31.68 20 31 C19.34 31 18.68 31 18 31 C18 30.34 18 29.68 18 29 C17.34 29 16.68 29 16 29 C16 28.34 16 27.68 16 27 C15.34 27 14.68 27 14 27 C14 26.34 14 25.68 14 25 C13.34 25 12.68 25 12 25 C12 24.34 12 23.68 12 23 C11.34 23 10.68 23 10 23 C10 22.34 10 21.68 10 21 C9.34 21 8.68 21 8 21 C8.05329468 22.58252563 8.05329468 22.58252563 8.10766602 24.19702148 C8.23767079 28.09741817 8.36095839 31.99800284 8.48217773 35.89868164 C8.53567115 37.58949623 8.59100598 39.28025358 8.64819336 40.97094727 C8.72990041 43.39587047 8.80506395 45.82091994 8.87890625 48.24609375 C8.90594131 49.00651474 8.93297638 49.76693573 8.96083069 50.55039978 C9.01291299 52.36623334 9.01186585 54.18345843 9 56 C8.505 56.495 8.505 56.495 8 57 C5.36 57 2.72 57 0 57 C0 38.19 0 19.38 0 0 Z " fill="#232323" transform="translate(400,375)"/>
<path d="M0 0 C26.07692308 0 26.07692308 0 35.8125 5.625 C42.6347425 13.03200615 45.36928053 20.44135655 45.20703125 30.3828125 C44.55415693 38.63612943 41.0857891 44.47655281 35 50 C24.1257334 57.85489822 14.32687111 55 0 55 C0 36.85 0 18.7 0 0 Z M8 8 C8 20.87 8 33.74 8 47 C20.74566581 47.24497818 20.74566581 47.24497818 30.75 42.3125 C34.85724706 38.09116275 36.14681437 33.2512731 36.375 27.4375 C36.15143861 21.79014484 34.32961976 17.67152198 30.8125 13.25 C23.34739466 7.27791573 17.83407822 8 8 8 Z " fill="#252525" transform="translate(268,377)"/>
<path d="M0 0 C-0.66 2.97 -1.32 5.94 -2 9 C-2.66644531 8.77183594 -3.33289063 8.54367187 -4.01953125 8.30859375 C-12.20535131 5.75553379 -19.53974305 4.81041931 -27.4375 8.6875 C-32.77844837 13.50738023 -34.7231715 17.73342367 -35.3125 24.6875 C-35.19063851 29.71194305 -33.99781968 33.92544405 -31 38 C-25.28575548 42.55867373 -19.50469859 43.54118297 -12.34765625 43.2734375 C-9.85019904 43.06359456 -9.85019904 43.06359456 -7 42 C-6.67 39.03 -6.34 36.06 -6 33 C-6.71027344 33.01160156 -7.42054687 33.02320313 -8.15234375 33.03515625 C-9.07144531 33.04417969 -9.99054688 33.05320312 -10.9375 33.0625 C-12.31228516 33.07990234 -12.31228516 33.07990234 -13.71484375 33.09765625 C-16 33 -16 33 -17 32 C-17 29.69 -17 27.38 -17 25 C-10.73 25 -4.46 25 2 25 C2 32.59 2 40.18 2 48 C-8.48569614 52.66030939 -16.59647176 55.006495 -27.6875 51.5 C-34.35892899 48.76471411 -39.00005345 44.79026698 -42.37890625 38.38671875 C-46.2014882 28.97011443 -46.06259591 20.92883855 -42.25 11.54296875 C-38.45885626 3.8303607 -32.95303327 0.0501332 -25 -3 C-16.23580608 -5.09809491 -8.06897748 -4.03448874 0 0 Z " fill="#2B2B2B" transform="translate(96,380)"/>
<path d="M0 0 C21 0 21 0 29 4 C33.64445273 8.84208902 35.31810097 12.11913396 35.21875 18.875 C34.74751817 23.45268061 33.07044721 26.98902208 29.75 30.125 C29.1725 30.74375 28.595 31.3625 28 32 C28.18078771 37.128662 31.33667687 41.04439881 34.0625 45.1875 C34.99484702 46.6159116 35.92343225 48.04678794 36.84765625 49.48046875 C37.4665271 50.42249146 37.4665271 50.42249146 38.09790039 51.38354492 C39 53 39 53 39 55 C35.52703108 55.54944965 32.45542913 55.73187461 29 55 C26.17141342 52.47793043 24.60733572 49.46303871 22.875 46.125 C22.39546875 45.28324219 21.9159375 44.44148438 21.421875 43.57421875 C18 37.46372768 18 37.46372768 18 35 C14.7 35 11.4 35 8 35 C8 41.6 8 48.2 8 55 C5.36 55 2.72 55 0 55 C0 36.85 0 18.7 0 0 Z M8 8 C8 14.27 8 20.54 8 27 C16.62659791 27.71242715 16.62659791 27.71242715 24 24 C26.15879198 21.35057347 26.09478727 19.21683717 25.8125 15.9375 C25.4137512 13.41365467 25.12098346 12.17047669 23.625 10.0625 C20.23784489 7.84782166 17.23112102 7.89139858 13.3125 7.9375 C11.559375 7.958125 9.80625 7.97875 8 8 Z " fill="#252525" transform="translate(218,377)"/>
<path d="M0 0 C2.05078125 0.03255208 4.1015625 0.06510417 6.15234375 0.09765625 C6.1663623 1.82266357 6.1663623 1.82266357 6.18066406 3.58251953 C6.22065759 7.86562257 6.2864421 12.14801438 6.35986328 16.43066406 C6.38801873 18.28115678 6.40926021 20.13176854 6.42333984 21.98242188 C6.44484495 24.64905505 6.49153235 27.31426509 6.54296875 29.98046875 C6.54419739 30.80257843 6.54542603 31.62468811 6.54669189 32.47171021 C6.68092123 37.7837777 7.62419507 40.88419852 11.15234375 45.09765625 C14.61063968 46.94506387 18.32365124 47.41004326 22.1875 46.75 C25.35778684 45.62592802 26.99832583 44.33552158 28.81567383 41.52880859 C30.47029724 37.28148851 30.62800822 33.71444148 30.6640625 29.19921875 C30.6820137 28.36425873 30.6999649 27.52929871 30.71846008 26.66903687 C30.77234297 24.02029364 30.80638736 21.37172831 30.83984375 18.72265625 C30.87303634 16.9192462 30.90752779 15.11585955 30.94335938 13.3125 C31.0280565 8.90768091 31.09497209 4.50291255 31.15234375 0.09765625 C33.79234375 0.09765625 36.43234375 0.09765625 39.15234375 0.09765625 C39.2266817 5.96921033 39.28103492 11.84048844 39.31713867 17.71240234 C39.33219473 19.70854466 39.35264402 21.70465406 39.37866211 23.70068359 C39.41518536 26.5752781 39.43210212 29.44943397 39.4453125 32.32421875 C39.46079636 33.21194977 39.47628021 34.09968079 39.49223328 35.01431274 C39.49384357 40.98678803 38.62929899 45.29084014 34.5390625 49.92578125 C28.90258995 54.64227782 23.92971201 56.61832588 16.51953125 56.40625 C9.67307105 55.51372466 4.75252342 52.35940612 0.34375 47.171875 C-2.91066703 41.50598831 -3.13747767 35.71622874 -3.078125 29.35546875 C-3.07766678 28.54649139 -3.07720856 27.73751404 -3.07673645 26.90402222 C-3.07373381 25.20813515 -3.06590773 23.51225034 -3.0534668 21.81640625 C-3.03506364 19.20953731 -3.03295839 16.60302126 -3.03320312 13.99609375 C-3.02829269 12.34504899 -3.02246646 10.69400664 -3.015625 9.04296875 C-3.01451218 8.26075958 -3.01339935 7.47855042 -3.01225281 6.67263794 C-2.95435792 0.15615 -2.95435792 0.15615 0 0 Z " fill="#2D2D2D" transform="translate(112.84765625,376.90234375)"/>
<path d="M0 0 C3 1 3 1 4.05516052 2.76806641 C4.37396683 3.53812012 4.69277313 4.30817383 5.02124023 5.1015625 C5.38849716 5.97337158 5.75575409 6.84518066 6.13414001 7.7434082 C6.52170975 8.6943335 6.90927948 9.64525879 7.30859375 10.625 C7.71658707 11.60106201 8.12458038 12.57712402 8.54493713 13.58276367 C9.85277617 16.7176653 11.14542621 19.85857203 12.4375 23 C13.72936845 26.1113845 15.02426617 29.22149622 16.3193512 32.33154297 C17.12449157 34.26828154 17.92715436 36.20605262 18.72691345 38.14501953 C20.81971174 43.21318688 22.97821563 48.23500177 25.28114319 53.21166992 C26 55 26 55 26 57 C22.7 57 19.4 57 16 57 C15.15973604 55.23244474 14.32801278 53.46082737 13.5 51.6875 C13.0359375 50.70136719 12.571875 49.71523438 12.09375 48.69921875 C11 46 11 46 11 43 C1.1 43.495 1.1 43.495 -9 44 C-9.804375 45.959375 -10.60875 47.91875 -11.4375 49.9375 C-13.875 55.875 -13.875 55.875 -15 57 C-17.67058851 57.14115161 -20.32432238 57.04247107 -23 57 C-22.33238269 52.70300926 -20.8399047 48.92455818 -19.12109375 44.9609375 C-18.83300339 44.28599747 -18.54491302 43.61105743 -18.24809265 42.91566467 C-17.31559318 40.73354489 -16.37657795 38.5542957 -15.4375 36.375 C-14.79816252 34.881807 -14.15932905 33.3883981 -13.52099609 31.89477539 C-12.2614515 28.94842253 -10.99990148 26.00294215 -9.73681641 23.05810547 C-7.50976829 17.86095147 -5.31329263 12.65107481 -3.125 7.4375 C-2.79814209 6.66003418 -2.47128418 5.88256836 -2.13452148 5.08154297 C-1.42252554 3.38790071 -0.71116684 1.69399057 0 0 Z M0 20 C-2.97 27.92 -2.97 27.92 -6 36 C-1.38 36 3.24 36 8 36 C6.02 30.72 4.04 25.44 2 20 C1.34 20 0.68 20 0 20 Z " fill="#2C2C2C" transform="translate(183,375)"/>
<path d="M0 0 C3 1 3 1 4.8059082 4.56323242 C5.48205843 6.15593925 6.14614987 7.75379715 6.80078125 9.35546875 C7.15963913 10.20869217 7.51849701 11.06191559 7.88822937 11.94099426 C9.03994377 14.68565568 10.1764614 17.4363182 11.3125 20.1875 C12.06604446 21.99195975 12.8205909 23.79600142 13.57617188 25.59960938 C15.04317911 29.10353312 16.50340639 32.61016973 17.95947266 36.11865234 C19.24461006 39.20695823 20.54804596 42.28576124 21.88037109 45.35400391 C22.30518013 46.33256096 22.30518013 46.33256096 22.73857117 47.33088684 C23.48667815 49.04667817 24.23960428 50.76036608 24.99291992 52.47387695 C26 55 26 55 26 57 C22.7 57 19.4 57 16 57 C15.16235732 55.04350603 14.33000941 53.08474444 13.5 51.125 C13.0359375 50.03445313 12.571875 48.94390625 12.09375 47.8203125 C11 45 11 45 11 43 C1.1 43.495 1.1 43.495 -9 44 C-9.804375 45.959375 -10.60875 47.91875 -11.4375 49.9375 C-13.875 55.875 -13.875 55.875 -15 57 C-17.67058851 57.14115161 -20.32432238 57.04247107 -23 57 C-22.40410395 53.59088421 -21.54327053 50.59492831 -20.18994141 47.41259766 C-19.81930573 46.53463531 -19.44867004 45.65667297 -19.06680298 44.75210571 C-18.66577362 43.81555145 -18.26474426 42.87899719 -17.8515625 41.9140625 C-17.43836761 40.93891693 -17.02517273 39.96377136 -16.59945679 38.95907593 C-15.27905736 35.84581887 -13.95211634 32.73539886 -12.625 29.625 C-11.73915317 27.53924514 -10.8537318 25.45330953 -9.96875 23.3671875 C-6.65975179 15.57216173 -3.33903679 7.78220662 0 0 Z M0 19 C-1.00419637 21.4566947 -2.00350501 23.91518353 -3 26.375 C-3.28617187 27.07367188 -3.57234375 27.77234375 -3.8671875 28.4921875 C-5.44524399 32.12885961 -5.44524399 32.12885961 -6 36 C-1.38 36 3.24 36 8 36 C7.05023017 33.35079924 6.09072092 30.70588027 5.125 28.0625 C4.85558594 27.30775391 4.58617187 26.55300781 4.30859375 25.77539062 C3.08380586 21.64902908 3.08380586 21.64902908 0 19 Z " fill="#2C2C2C" transform="translate(365,375)"/>
<path d="M0 0 C2.97 0 5.94 0 9 0 C9 18.15 9 36.3 9 55 C6.03 55 3.06 55 0 55 C0 36.85 0 18.7 0 0 Z " fill="#353535" transform="translate(324,377)"/>
<path d="M0 0 C-0.66 0.99 -1.32 1.98 -2 3 C-4.625 3.1875 -4.625 3.1875 -7 3 C-7 3.66 -7 4.32 -7 5 C-7.66 5.33 -8.32 5.66 -9 6 C-8.505 6.99 -8.505 6.99 -8 8 C-8.99 8 -9.98 8 -11 8 C-11 8.66 -11 9.32 -11 10 C-14.22791555 12.1519437 -15.28400809 12.20086443 -19 12 C-19 11.34 -19 10.68 -19 10 C-22.92962949 10.63381121 -26.57506087 11.80199451 -30.328125 13.0859375 C-32.77067238 13.92154582 -35.21770685 14.74152848 -37.66699219 15.55712891 C-38.47819519 15.82731842 -39.28939819 16.09750793 -40.12518311 16.37588501 C-40.74387268 16.58184296 -41.36256226 16.7878009 -42 17 C-42.02356112 29.21716395 -42.04113117 41.43432216 -42.05181217 53.65150452 C-42.05694815 59.32936425 -42.06386796 65.00720804 -42.07543945 70.68505859 C-42.13193119 99.14049711 -41.90726316 127.55788682 -41 156 C-41.33 156 -41.66 156 -42 156 C-45.14042147 146.36937417 -45.1459659 136.62715235 -45.11352539 126.57373047 C-45.11367142 125.37258102 -45.11381744 124.17143158 -45.1139679 122.93388367 C-45.11339465 119.6721656 -45.10841351 116.41049163 -45.10139394 113.14878225 C-45.0951008 109.72818796 -45.09455192 106.3075926 -45.09336853 102.88699341 C-45.09027267 96.4239042 -45.08208303 89.96083211 -45.07201904 83.4977504 C-45.06080343 76.13369485 -45.05533378 68.76963844 -45.05032361 61.40557647 C-45.03989878 46.27037481 -45.02233345 31.13518913 -45 16 C-43.58603973 15.3671092 -42.1715907 14.73531032 -40.75694275 14.10395813 C-39.96932525 13.75200536 -39.18170774 13.40005259 -38.37022305 13.03743458 C-34.86829646 11.50465911 -31.31940896 10.10743225 -27.75390625 8.73046875 C-27.0167186 8.44520828 -26.27953094 8.15994781 -25.52000427 7.86604309 C-23.98203457 7.27238864 -22.44354223 6.6800865 -20.90454102 6.08911133 C-18.54094308 5.17920127 -16.18168447 4.25857397 -13.82226562 3.33789062 C-12.32056776 2.75975319 -10.81862349 2.18225531 -9.31640625 1.60546875 C-8.2586776 1.19001045 -8.2586776 1.19001045 -7.17958069 0.76615906 C-2.22845105 -1.11422553 -2.22845105 -1.11422553 0 0 Z " fill="#8786E9" transform="translate(151,44)"/>
<path d="M0 0 C2.60478883 -0.0809313 5.20706653 -0.14045434 7.8125 -0.1875 C8.55048828 -0.21263672 9.28847656 -0.23777344 10.04882812 -0.26367188 C15.49020993 -0.33753679 15.49020993 -0.33753679 18 1.32421875 C19.52110299 3.87325461 19.18167843 6.09314516 19 9 C19 9.99 19 10.98 19 12 C19.33 12.33 19.66 12.66 20 13 C20.3125 16.375 20.3125 16.375 20 20 C17.54120544 22.73338076 16.05864595 22.99470864 12.36328125 23.328125 C11.01281102 23.31756414 9.66238597 23.29110024 8.3125 23.25 C7.62349609 23.24484375 6.93449219 23.2396875 6.22460938 23.234375 C1.15461101 23.15461101 1.15461101 23.15461101 0 22 C-0.08700342 20.36527118 -0.10701063 18.72685945 -0.09765625 17.08984375 C-0.09443359 16.10048828 -0.09121094 15.11113281 -0.08789062 14.09179688 C-0.07951172 13.05087891 -0.07113281 12.00996094 -0.0625 10.9375 C-0.05798828 9.89271484 -0.05347656 8.84792969 -0.04882812 7.77148438 C-0.03699913 5.1809334 -0.02051689 2.59049441 0 0 Z M4 3 C4 5.31 4 7.62 4 10 C5.8871875 10.0309375 5.8871875 10.0309375 7.8125 10.0625 C8.52019531 10.07410156 9.22789062 10.08570313 9.95703125 10.09765625 C12.20305461 10.08263217 12.20305461 10.08263217 15 9 C15 7.35 15 5.7 15 4 C12.59454362 2.79727181 11.05003047 2.89928528 8.375 2.9375 C7.55773437 2.94652344 6.74046875 2.95554687 5.8984375 2.96484375 C5.27195313 2.97644531 4.64546875 2.98804688 4 3 Z M4 13 C4 15.31 4 17.62 4 20 C5.60332791 20.08121924 7.20784026 20.13929134 8.8125 20.1875 C10.15248047 20.23970703 10.15248047 20.23970703 11.51953125 20.29296875 C14.41647515 19.95081002 15.22555028 19.24606427 17 17 C16.67 16.01 16.34 15.02 16 14 C13.47524538 12.73762269 11.68799534 12.90143596 8.875 12.9375 C7.96492187 12.94652344 7.05484375 12.95554687 6.1171875 12.96484375 C5.06917969 12.98224609 5.06917969 12.98224609 4 13 Z " fill="#8B8B8B" transform="translate(193,454)"/>
<path d="M0 0 C1.32 0 2.64 0 4 0 C5.91417189 2.11411611 7.54278853 4.13103971 9.1875 6.4375 C10.07665037 7.64465836 10.96596495 8.85169579 11.85546875 10.05859375 C12.56316406 11.02925781 13.27085937 11.99992187 14 13 C14.33 13.33 14.66 13.66 15 14 C15.33 9.38 15.66 4.76 16 0 C17.32 0 18.64 0 20 0 C20 7.59 20 15.18 20 23 C14.21914495 21.84382899 12.88952316 19.93930737 9.6875 15.4375 C9.23310547 14.82197266 8.77871094 14.20644531 8.31054688 13.57226562 C7.19475681 12.05714017 6.09569629 10.52971967 5 9 C4.67 13.62 4.34 18.24 4 23 C2.68 23 1.36 23 0 23 C0 15.41 0 7.82 0 0 Z " fill="#9A9A9A" transform="translate(254,454)"/>
<path d="M0 0 C1.32 0 2.64 0 4 0 C4.33 3.63 4.66 7.26 5 11 C5.66386719 10.2059375 6.32773437 9.411875 7.01171875 8.59375 C7.90290026 7.56185562 8.79486893 6.5306407 9.6875 5.5 C10.12255859 4.97535156 10.55761719 4.45070313 11.00585938 3.91015625 C13.23557562 1.36662809 14.40677817 0.07200486 17.83203125 -0.34375 C18.54746094 -0.2303125 19.26289063 -0.116875 20 0 C19.59007812 0.45890625 19.18015625 0.9178125 18.7578125 1.390625 C18.21898437 2.00421875 17.68015625 2.6178125 17.125 3.25 C16.59132813 3.85328125 16.05765625 4.4565625 15.5078125 5.078125 C14.0202513 6.97418746 12.99677564 8.81290005 12 11 C12.5775 11.69867188 13.155 12.39734375 13.75 13.1171875 C14.4925 14.02726562 15.235 14.93734375 16 15.875 C16.7425 16.77992188 17.485 17.68484375 18.25 18.6171875 C20 21 20 21 20 23 C15.62346871 22.52379711 13.93461995 21.33100111 11.1875 17.9375 C10.58292969 17.20402344 9.97835938 16.47054688 9.35546875 15.71484375 C8.90816406 15.14894531 8.46085937 14.58304687 8 14 C4.88009102 16.78533429 4.46183818 18.84345641 4 23 C2.68 23 1.36 23 0 23 C0 15.41 0 7.82 0 0 Z " fill="#6C6C6C" transform="translate(286,454)"/>
<path d="M0 0 C1.32 0 2.64 0 4 0 C5.5091441 3.26669046 7.00571701 6.53898816 8.5 9.8125 C8.92925781 10.74126953 9.35851562 11.67003906 9.80078125 12.62695312 C10.40986328 13.9659668 10.40986328 13.9659668 11.03125 15.33203125 C11.40830078 16.15421143 11.78535156 16.9763916 12.17382812 17.82348633 C13 20 13 20 13 23 C11.68 22.67 10.36 22.34 9 22 C8.505 19.525 8.505 19.525 8 17 C6.06177404 17.03305502 4.12414332 17.10249905 2.1875 17.1875 C1.10855469 17.22230469 0.02960938 17.25710938 -1.08203125 17.29296875 C-4.21903157 17.70383602 -4.21903157 17.70383602 -5.69921875 20.55078125 C-6.12847656 21.35902344 -6.55773437 22.16726563 -7 23 C-7.99 23 -8.98 23 -10 23 C-9.35592303 17.96814871 -7.1775132 13.76491374 -5 9.25 C-4.63132813 8.47011719 -4.26265625 7.69023437 -3.8828125 6.88671875 C-1.14835963 1.14835963 -1.14835963 1.14835963 0 0 Z M1 5 C-0.98 9.455 -0.98 9.455 -3 14 C-0.03 14 2.94 14 6 14 C4.68 11.03 3.36 8.06 2 5 C1.67 5 1.34 5 1 5 Z " fill="#5C5C5C" transform="translate(231,454)"/>
<path d="M0 0 C3.3 0 6.6 0 10 0 C10 0.33 10 0.66 10 1 C7.03 1 4.06 1 1 1 C1 3.97 1 6.94 1 10 C6.94 9.505 6.94 9.505 13 9 C13 9.66 13 10.32 13 11 C9.04 11 5.08 11 1 11 C1 13.97 1 16.94 1 20 C4.63 20 8.26 20 12 20 C12 19.34 12 18.68 12 18 C12.66 18 13.32 18 14 18 C14.33 16.02 14.66 14.04 15 12 C15.66 12.33 16.32 12.66 17 13 C17.04241723 15.33294775 17.04092937 17.66702567 17 20 C16 21 16 21 12.40234375 21.09765625 C10.91402745 21.09191272 9.42573704 21.07889891 7.9375 21.0625 C5.318125 21.041875 2.69875 21.02125 0 21 C0 14.07 0 7.14 0 0 Z " fill="#060606" transform="translate(195,455)"/>
<path d="M0 0 C4.15299569 1.92817657 7.21891906 3.65654079 9.5625 7.6875 C10.036875 8.450625 10.51125 9.21375 11 10 C11.99 10 12.98 10 14 10 C15.6875 11.1875 15.6875 11.1875 17 13 C17.1875 15.6875 17.1875 15.6875 17 18 C18.32 18.66 19.64 19.32 21 20 C21 20.99 21 21.98 21 23 C16.48324661 20.97051283 13.80374164 17.912155 10.5 14.3125 C9.93152344 13.71244141 9.36304688 13.11238281 8.77734375 12.49414062 C5.15623017 8.58316993 2.4734287 4.72255136 0 0 Z " fill="#8F8EEB" transform="translate(142,286)"/>
<path d="M0 0 C0.99 0 1.98 0 3 0 C3 7.59 3 15.18 3 23 C1.35 22.67 -0.3 22.34 -2 22 C-2 20.68 -2 19.36 -2 18 C-1.34 18 -0.68 18 0 18 C0 12.06 0 6.12 0 0 Z " fill="#787878" transform="translate(271,454)"/>
<path d="M0 0 C-0.99 0.495 -0.99 0.495 -2 1 C-1.67 2.32 -1.34 3.64 -1 5 C-2.6396875 5.2165625 -2.6396875 5.2165625 -4.3125 5.4375 C-7.93122987 5.88288104 -7.93122987 5.88288104 -11 7 C-12.66666667 7 -14.33333333 7 -16 7 C-16.33 7.33 -16.66 7.66 -17 8 C-19.67058851 8.14115161 -22.32432238 8.04247107 -25 8 C-21.56927092 5.71284728 -18.01721307 4.32633279 -14.1875 2.875 C-13.48818359 2.59785156 -12.78886719 2.32070312 -12.06835938 2.03515625 C-7.89006121 0.44826284 -4.54304197 -0.32806896 0 0 Z " fill="#7778E7" transform="translate(245,9)"/>
<path d="M0 0 C4.54805635 -0.17835515 7.8794254 0.00214565 12 2 C12 2.66 12 3.32 12 4 C13.65 4 15.3 4 17 4 C17 4.66 17 5.32 17 6 C17.886875 5.938125 18.77375 5.87625 19.6875 5.8125 C23.45258899 6.02561824 24.86359482 7.01106013 28 9 C29.216875 9.33 30.43375 9.66 31.6875 10 C35 11 35 11 37 14 C28.50012675 11.90764059 20.45120081 9.01588533 12.3125 5.8125 C11.12205078 5.34908203 9.93160156 4.88566406 8.70507812 4.40820312 C5.80141984 3.27705913 2.89982736 2.14092093 0 1 C0 0.67 0 0.34 0 0 Z " fill="#ABACEC" transform="translate(276,45)"/>
<path d="M0 0 C0.33 0 0.66 0 1 0 C1 3 1 6 1 9 C1.33 9.33 1.66 9.66 2 10 C2.04092937 12.33297433 2.04241723 14.66705225 2 17 C1.67 17 1.34 17 1 17 C0.67 15.02 0.34 13.04 0 11 C-0.66 11.66 -1.32 12.32 -2 13 C-2 12.34 -2 11.68 -2 11 C-5.96 10.67 -9.92 10.34 -14 10 C-14 12.31 -14 14.62 -14 17 C-10.7 17 -7.4 17 -4 17 C-4 17.33 -4 17.66 -4 18 C-7.63 18 -11.26 18 -15 18 C-15 15.03 -15 12.06 -15 9 C-11.04 9 -7.08 9 -3 9 C-3 8.34 -3 7.68 -3 7 C-3.99 6.67 -4.98 6.34 -6 6 C-5.01 6 -4.02 6 -3 6 C-3 4.35 -3 2.7 -3 1 C-2.67 2.32 -2.34 3.64 -2 5 C-1.34 5 -0.68 5 0 5 C0 3.35 0 1.7 0 0 Z " fill="#939393" transform="translate(211,457)"/>
<path d="M0 0 C1 3 1 3 0 7 C3.3 7 6.6 7 10 7 C10 7.33 10 7.66 10 8 C6.04 8 2.08 8 -2 8 C-2 9.65 -2 11.3 -2 13 C-2.66 13.66 -3.32 14.32 -4 15 C-4.99 15 -5.98 15 -7 15 C-6.35753223 10.02087479 -4.39982029 5.383068 -2 1 C-1.34 0.67 -0.68 0.34 0 0 Z " fill="#4C4C4C" transform="translate(228,462)"/>
<path d="M0 0 C0.33 0 0.66 0 1 0 C1 1.98 1 3.96 1 6 C1.66 6 2.32 6 3 6 C3.03738281 6.86882812 3.07476562 7.73765625 3.11328125 8.6328125 C3.37685151 15.61087938 3.37685151 15.61087938 5.5625 22.125 C7.79385062 26.58770125 7.23546869 31.09876282 7 36 C3.91621104 31.37431656 3.43414299 26.21597658 2.375 20.8125 C2.14554687 19.70068359 1.91609375 18.58886719 1.6796875 17.44335938 C0.50068485 11.51676568 -0.28032663 6.04177666 0 0 Z " fill="#B4B5F2" transform="translate(108,194)"/>
<path d="M0 0 C0.33 0 0.66 0 1 0 C0.6059944 10.97305596 -1.57644574 21.3250889 -4 32 C-4.33 32 -4.66 32 -5 32 C-5.20190089 25.64012196 -4.6277833 20.14778871 -3 14 C-3.99 14.33 -4.98 14.66 -6 15 C-5.67 14.01 -5.34 13.02 -5 12 C-4.01 11.67 -3.02 11.34 -2 11 C-1.34 7.37 -0.68 3.74 0 0 Z " fill="#9C9BEE" transform="translate(391,194)"/>
<path d="M0 0 C0.66 0 1.32 0 2 0 C2 4.29 2 8.58 2 13 C2.66 13 3.32 13 4 13 C3.67 15.97 3.34 18.94 3 22 C2.01 22 1.02 22 0 22 C0 14.74 0 7.48 0 0 Z " fill="#303030" transform="translate(287,455)"/>
<path d="M0 0 C6.09477787 0.34930545 10.5693757 1.03784129 16 4 C17.051875 4.144375 18.10375 4.28875 19.1875 4.4375 C22 5 22 5 23.875 7.0625 C24.431875 8.0215625 24.431875 8.0215625 25 9 C16.25781959 7.43889635 8.24016625 4.21518143 0 1 C0 0.67 0 0.34 0 0 Z " fill="#9D9EE8" transform="translate(220,344)"/>
<path d="M0 0 C3.69230769 0.69230769 3.69230769 0.69230769 5 2 C5.04080783 3.99958364 5.04254356 6.00045254 5 8 C4.34 8 3.68 8 3 8 C3 6.68 3 5.36 3 4 C-0.96 3.67 -4.92 3.34 -9 3 C-9 5.31 -9 7.62 -9 10 C-6.36 10 -3.72 10 -1 10 C-1 10.33 -1 10.66 -1 11 C-3.97 11 -6.94 11 -10 11 C-10 8.03 -10 5.06 -10 2 C-8.535625 1.855625 -7.07125 1.71125 -5.5625 1.5625 C-2.48153302 1.46504174 -2.48153302 1.46504174 0 0 Z " fill="#666666" transform="translate(206,454)"/>
<path d="M0 0 C-6.89537581 4.71387417 -13.64148898 7.90922657 -22 9 C-23.34205582 8.70373142 -24.67810732 8.37614975 -26 8 C-22.04634027 6.46681219 -18.08639947 4.95056575 -14.125 3.4375 C-12.99707031 2.99986328 -11.86914062 2.56222656 -10.70703125 2.11132812 C-9.63066406 1.70205078 -8.55429688 1.29277344 -7.4453125 0.87109375 C-6.45031738 0.48880615 -5.45532227 0.10651855 -4.43017578 -0.28735352 C-2 -1 -2 -1 0 0 Z " fill="#9B9BE9" transform="translate(133,51)"/>
<path d="M0 0 C1.32 0 2.64 0 4 0 C4.02578125 0.77085937 4.0515625 1.54171875 4.078125 2.3359375 C4.13484375 3.33882813 4.1915625 4.34171875 4.25 5.375 C4.29640625 6.37273437 4.3428125 7.37046875 4.390625 8.3984375 C4.72160885 11.1526477 4.72160885 11.1526477 7.046875 12.3515625 C7.69140625 12.56554687 8.3359375 12.77953125 9 13 C7.68 13.99 6.36 14.98 5 16 C5 15.34 5 14.68 5 14 C4.34 14 3.68 14 3 14 C3 9.71 3 5.42 3 1 C2.34 1 1.68 1 1 1 C1 8.26 1 15.52 1 23 C0.67 23 0.34 23 0 23 C0 15.41 0 7.82 0 0 Z " fill="#B4B4B4" transform="translate(286,454)"/>
<path d="M0 0 C3.05936637 3.75467691 5 7.08113061 5 12 C3.68 11.67 2.36 11.34 1 11 C0.67 9.35 0.34 7.7 0 6 C-6.435 6.495 -6.435 6.495 -13 7 C-13 6.34 -13 5.68 -13 5 C-7.06 4.505 -7.06 4.505 -1 4 C-0.67 2.68 -0.34 1.36 0 0 Z " fill="#767676" transform="translate(239,465)"/>
<path d="M0 0 C-0.33 1.65 -0.66 3.3 -1 5 C-4.9492568 4.44894091 -8.34920174 3.61064629 -12 2 C-12 1.34 -12 0.68 -12 0 C-7.74433453 -1.16063604 -4.3164922 -0.76173392 0 0 Z " fill="#7F7EEA" transform="translate(222,339)"/>
<path d="M0 0 C2.69981425 2.69981425 3.70230888 5.88020238 5.0625 9.375 C5.4656543 10.38433594 5.4656543 10.38433594 5.87695312 11.4140625 C7.1232076 14.57165487 8.30853074 17.67070356 9 21 C7.68 21 6.36 21 5 21 C4.87882813 20.37351563 4.75765625 19.74703125 4.6328125 19.1015625 C4.46523437 18.28429687 4.29765625 17.46703125 4.125 16.625 C3.96257812 15.81289062 3.80015625 15.00078125 3.6328125 14.1640625 C3.13341068 11.81326077 3.13341068 11.81326077 1 10 C0.5859375 7.6171875 0.5859375 7.6171875 0.375 4.875 C0.30023438 3.96492187 0.22546875 3.05484375 0.1484375 2.1171875 C0.09945312 1.41851562 0.05046875 0.71984375 0 0 Z " fill="#ABABEE" transform="translate(140,229)"/>
<path d="M0 0 C0.99 0.33 1.98 0.66 3 1 C2.67 1.99 2.34 2.98 2 4 C1.92026524 5.33525717 1.89228662 6.67412083 1.90234375 8.01171875 C1.90556641 8.76904297 1.90878906 9.52636719 1.91210938 10.30664062 C1.92048828 11.09232422 1.92886719 11.87800781 1.9375 12.6875 C1.94201172 13.48478516 1.94652344 14.28207031 1.95117188 15.10351562 C1.9629415 17.06904257 1.98087652 19.03453085 2 21 C1.34 21 0.68 21 0 21 C0 14.07 0 7.14 0 0 Z " fill="#111111" transform="translate(255,455)"/>
<path d="M0 0 C-1.125 1.5 -1.125 1.5 -3 3 C-6.1875 3.1875 -6.1875 3.1875 -9 3 C-9 3.66 -9 4.32 -9 5 C-11.97 5 -14.94 5 -18 5 C-15.17770487 3.11846991 -12.72109829 1.99965295 -9.5625 0.8125 C-8.61503906 0.44769531 -7.66757813 0.08289062 -6.69140625 -0.29296875 C-3.92916783 -1.01860758 -2.63633262 -0.97849698 0 0 Z " fill="#9292E6" transform="translate(185,32)"/>
<path d="M0 0 C1.65 0.33 3.3 0.66 5 1 C-0.64524422 6.80205656 -0.64524422 6.80205656 -4 9 C-4.66 9 -5.32 9 -6 9 C-6.33 7.35 -6.66 5.7 -7 4 C-6.030625 3.71125 -5.06125 3.4225 -4.0625 3.125 C-0.89335797 2.35785318 -0.89335797 2.35785318 0 0 Z " fill="#8786EB" transform="translate(328,312)"/>
<path d="M0 0 C11.82994076 0.21056529 11.82994076 0.21056529 15.75 3.5625 C16.86375 4.7690625 16.86375 4.7690625 18 6 C16 7 16 7 12.3046875 5.78515625 C10.82514342 5.21866415 9.34867819 4.64408111 7.875 4.0625 C7.12089844 3.77181641 6.36679687 3.48113281 5.58984375 3.18164062 C3.72391398 2.46125002 1.8616042 1.73149596 0 1 C0 0.67 0 0.34 0 0 Z " fill="#9B9AE9" transform="translate(258,38)"/>
<path d="M0 0 C-2.64738916 1.4606285 -3.89448334 2 -7 2 C-7.33 2.99 -7.66 3.98 -8 5 C-9.32 4.67 -10.64 4.34 -12 4 C-12.33 4.99 -12.66 5.98 -13 7 C-15.64 7 -18.28 7 -21 7 C-17.45941714 4.63961143 -13.90193747 3.30223114 -9.9375 1.8125 C-9.20466797 1.52697266 -8.47183594 1.24144531 -7.71679688 0.94726562 C-2.2396978 -1.1198489 -2.2396978 -1.1198489 0 0 Z " fill="#A0A0EE" transform="translate(220,18)"/>
<path d="M0 0 C4.20969919 1.50346399 5.91860139 4.14555814 8 8 C7.75 10.375 7.75 10.375 7 12 C4.525 11.01 4.525 11.01 2 10 C2.04125 9.278125 2.0825 8.55625 2.125 7.8125 C1.99078695 4.79270631 1.24829381 2.73064271 0 0 Z " fill="#7B7BEC" transform="translate(152,258)"/>
<path d="M0 0 C-3.12804946 2.0853663 -5.80150192 3.05493825 -9.375 4.1875 C-10.49648438 4.55230469 -11.61796875 4.91710937 -12.7734375 5.29296875 C-16.00399734 6.00087593 -17.86424381 5.92193581 -21 5 C-21 4.67 -21 4.34 -21 4 C-18.69 4 -16.38 4 -14 4 C-14 3.34 -14 2.68 -14 2 C-9.126739 0.4087311 -5.19209404 -0.21192221 0 0 Z " fill="#A9AAEC" transform="translate(267,349)"/>
<path d="M0 0 C2.31 0 4.62 0 7 0 C3.20182235 3.22269618 -0.57391854 5.74520378 -5 8 C-5.66 7.67 -6.32 7.34 -7 7 C-7 6.01 -7 5.02 -7 4 C-3.535 3.505 -3.535 3.505 0 3 C0 2.01 0 1.02 0 0 Z " fill="#9696E7" transform="translate(307,327)"/>
<path d="M0 0 C3.37462715 0.54723683 5.08235 1.0549 8 3 C9.175625 3.309375 10.35125 3.61875 11.5625 3.9375 C15 5 15 5 17 8 C15.26982492 7.54548816 13.54090123 7.08621143 11.8125 6.625 C10.84957031 6.36976562 9.88664062 6.11453125 8.89453125 5.8515625 C6.14573856 5.04287585 3.57077804 4.26940727 1 3 C0.67 2.01 0.34 1.02 0 0 Z " fill="#9A9CE7" transform="translate(296,51)"/>
<path d="M0 0 C0.33 0.66 0.66 1.32 1 2 C1.99 2.33 2.98 2.66 4 3 C3.67 4.32 3.34 5.64 3 7 C3.99 6.67 4.98 6.34 6 6 C6.66 8.97 7.32 11.94 8 15 C4.23583908 11.65407918 1.07209735 7.60781467 -1 3 C-0.67 2.01 -0.34 1.02 0 0 Z " fill="#9E9DEC" transform="translate(133,270)"/>
<path d="M0 0 C4.63720719 3.27530896 8.68542782 6.30435607 12 11 C11.01 11.495 11.01 11.495 10 12 C9.67 11.34 9.34 10.68 9 10 C8.06414062 9.79697266 8.06414062 9.79697266 7.109375 9.58984375 C4.4274898 8.83990919 3.78539932 7.84190455 2.25 5.5625 C1.82203125 4.94503906 1.3940625 4.32757813 0.953125 3.69140625 C0 2 0 2 0 0 Z " fill="#9696E7" transform="translate(172,282)"/>
<path d="M0 0 C1.32 0 2.64 0 4 0 C4 0.66 4 1.32 4 2 C5.98 2 7.96 2 10 2 C10.66 3.65 11.32 5.3 12 7 C7.39104317 5.68315519 3.85859765 3.84801255 0 1 C0 0.67 0 0.34 0 0 Z " fill="#9A9AEA" transform="translate(190,329)"/>
<path d="M0 0 C0.33 0.66 0.66 1.32 1 2 C1.66 2 2.32 2 3 2 C2.55090939 3.48199902 2.09043436 4.96055236 1.625 6.4375 C1.36976563 7.26121094 1.11453125 8.08492188 0.8515625 8.93359375 C0 11 0 11 -2 12 C-3.01911045 8.10885099 -3.16782969 6.39403493 -1.5625 2.625 C-1.046875 1.75875 -0.53125 0.8925 0 0 Z " fill="#7F7F7F" transform="translate(230,455)"/>
<path d="M0 0 C1 3 1 3 0.3125 5.625 C-1 8 -1 8 -3 8.9375 C-3.99 8.9684375 -3.99 8.9684375 -5 9 C-5.66 8.34 -6.32 7.68 -7 7 C-6.175 6.38125 -5.35 5.7625 -4.5 5.125 C-3.2625 4.073125 -3.2625 4.073125 -2 3 C-2 2.34 -2 1.68 -2 1 C-1.34 0.67 -0.68 0.34 0 0 Z " fill="#8A8AE9" transform="translate(379,245)"/>
<path d="M0 0 C1.32 0 2.64 0 4 0 C4.66 2.31 5.32 4.62 6 7 C5.01 7.66 4.02 8.32 3 9 C2.67 7.02 2.34 5.04 2 3 C1.34 3 0.68 3 0 3 C0 2.01 0 1.02 0 0 Z " fill="#646464" transform="translate(231,454)"/>
<path d="M0 0 C0.33 0 0.66 0 1 0 C0.51679152 6.2054142 -0.33318124 11.99945246 -2 18 C-2.33 18 -2.66 18 -3 18 C-3.31985731 11.28299653 -2.4793824 6.24273068 0 0 Z " fill="#B2B3EF" transform="translate(389,208)"/>
<path d="M0 0 C9.59453303 2.89066059 9.59453303 2.89066059 13 6 C11.02 6 9.04 6 7 6 C7 5.34 7 4.68 7 4 C4.03 3.505 4.03 3.505 1 3 C0.67 2.01 0.34 1.02 0 0 Z " fill="#9FA0EC" transform="translate(213,311)"/>
<path d="M0 0 C-0.99 1.485 -0.99 1.485 -2 3 C-4.6015625 3.51171875 -4.6015625 3.51171875 -7.625 3.6875 C-9.12933594 3.78611328 -9.12933594 3.78611328 -10.6640625 3.88671875 C-11.82035156 3.94279297 -11.82035156 3.94279297 -13 4 C-10.56272708 2.37515139 -8.62713877 1.34310925 -5.9375 0.3125 C-5.24527344 0.04050781 -4.55304688 -0.23148438 -3.83984375 -0.51171875 C-2 -1 -2 -1 0 0 Z " fill="#A09FEB" transform="translate(151,44)"/>
<path d="M0 0 C4.60853797 0.72008406 8.67237409 2.31295939 13 4 C11.4375 5.1875 11.4375 5.1875 9 6 C5.25 4.625 5.25 4.625 2 3 C2 2.34 2 1.68 2 1 C1.34 0.67 0.68 0.34 0 0 Z " fill="#A2A3EB" transform="translate(317,31)"/>
<path d="M0 0 C1.48828125 1.14453125 1.48828125 1.14453125 3 3 C3.29296875 5.69921875 3.29296875 5.69921875 3.1875 8.6875 C3.16042969 9.68136719 3.13335937 10.67523438 3.10546875 11.69921875 C3.07066406 12.45847656 3.03585938 13.21773437 3 14 C-0.16470185 9.25294723 -0.10927475 5.68228705 0 0 Z " fill="#A2A2EB" transform="translate(112,216)"/>
<path d="M0 0 C-0.99 1.485 -0.99 1.485 -2 3 C-4.6015625 3.51171875 -4.6015625 3.51171875 -7.625 3.6875 C-9.12933594 3.78611328 -9.12933594 3.78611328 -10.6640625 3.88671875 C-11.82035156 3.94279297 -11.82035156 3.94279297 -13 4 C-10.56272708 2.37515139 -8.62713877 1.34310925 -5.9375 0.3125 C-5.24527344 0.04050781 -4.55304688 -0.23148438 -3.83984375 -0.51171875 C-2 -1 -2 -1 0 0 Z " fill="#9E9CEC" transform="translate(241,10)"/>
<path d="M0 0 C3 1 3 1 4.6875 4.0625 C5.120625 5.031875 5.55375 6.00125 6 7 C5.34 7.66 4.68 8.32 4 9 C0 4.5 0 4.5 0 0 Z " fill="#474747" transform="translate(264,465)"/>
<path d="M0 0 C0.33 0 0.66 0 1 0 C1 6.27 1 12.54 1 19 C0.01 18.34 -0.98 17.68 -2 17 C-2 16.34 -2 15.68 -2 15 C-1.34 15 -0.68 15 0 15 C0 10.05 0 5.1 0 0 Z " fill="#020202" transform="translate(271,457)"/>
<path d="M0 0 C1.98 0.66 3.96 1.32 6 2 C6.33 3.65 6.66 5.3 7 7 C4.625 6.3125 4.625 6.3125 2 5 C0.6875 2.375 0.6875 2.375 0 0 Z " fill="#8282EC" transform="translate(183,322)"/>
<path d="M0 0 C3.96502948 0.45057153 7.35465276 1.39175857 11 3 C11 3.33 11 3.66 11 4 C3.61538462 4.36923077 3.61538462 4.36923077 0.5 2.5 C0.005 2.005 -0.49 1.51 -1 1 C-0.67 0.67 -0.34 0.34 0 0 Z " fill="#A5A5EC" transform="translate(338,39)"/>
<path d="M0 0 C0.66 0.33 1.32 0.66 2 1 C2 3.31 2 5.62 2 8 C1.01 8.495 1.01 8.495 0 9 C0 8.34 0 7.68 0 7 C-0.99 6.67 -1.98 6.34 -3 6 C-2.34 6 -1.68 6 -1 6 C-0.67 4.02 -0.34 2.04 0 0 Z " fill="#4C4C4C" transform="translate(210,467)"/>
<path d="M0 0 C2.97 0.495 2.97 0.495 6 1 C6.33 1.99 6.66 2.98 7 4 C7.66 4.33 8.32 4.66 9 5 C8.01 5.495 8.01 5.495 7 6 C5.83054208 5.19152271 4.66449539 4.37810888 3.5 3.5625 C2.8503125 3.11003906 2.200625 2.65757812 1.53125 2.19140625 C1.0259375 1.79824219 0.520625 1.40507812 0 1 C0 0.67 0 0.34 0 0 Z " fill="#9394E4" transform="translate(167,313)"/>
<path d="M0 0 C3.33523252 1.38009621 5.18607951 2.84950652 7 6 C6.67 6.99 6.34 7.98 6 9 C4.99712471 7.68969568 3.99777175 6.37669473 3 5.0625 C2.443125 4.33160156 1.88625 3.60070312 1.3125 2.84765625 C0 1 0 1 0 0 Z " fill="#999CE8" transform="translate(142,286)"/>
<path d="M0 0 C-1.28519565 2.86697492 -2.57129254 4.97607712 -5 7 C-5.66 7 -6.32 7 -7 7 C-3.86206897 0 -3.86206897 0 0 0 Z " fill="#3F3F3F" transform="translate(304,455)"/>
<path d="M0 0 C0.99 0.33 1.98 0.66 3 1 C3.6875 3.0625 3.6875 3.0625 4 5 C3.01 4.67 2.02 4.34 1 4 C0.01 4.99 -0.98 5.98 -2 7 C-1.34 4.69 -0.68 2.38 0 0 Z " fill="#8A8A8A" transform="translate(365,375)"/>
<path d="M0 0 C-2.70188004 1.80125336 -4.93057703 3.00243753 -8 4 C-8.99 3.67 -9.98 3.34 -11 3 C-10.34 3 -9.68 3 -9 3 C-9 2.34 -9 1.68 -9 1 C-5.8035914 -0.06546953 -3.34252724 -0.07427838 0 0 Z " fill="#A5A6EE" transform="translate(278,345)"/>
<path d="M0 0 C2.99324263 1.0975223 3.84610901 1.67682892 5.25 4.625 C5.4975 5.40875 5.745 6.1925 6 7 C5.01 7 4.02 7 3 7 C0 2.77777778 0 2.77777778 0 0 Z " fill="#9595E9" transform="translate(152,258)"/>
<path d="M0 0 C4.54805635 -0.17835515 7.8794254 0.00214565 12 2 C12 2.33 12 2.66 12 3 C7.45194365 3.17835515 4.1205746 2.99785435 0 1 C0 0.67 0 0.34 0 0 Z " fill="#9B9BE7" transform="translate(276,45)"/>
<path d="M0 0 C0.99 0.33 1.98 0.66 3 1 C3.6875 3.0625 3.6875 3.0625 4 5 C3.34 5 2.68 5 2 5 C2 4.34 2 3.68 2 3 C1.34 3 0.68 3 0 3 C-0.33 4.32 -0.66 5.64 -1 7 C-1.33 6.34 -1.66 5.68 -2 5 C-1.0625 2.375 -1.0625 2.375 0 0 Z " fill="#929292" transform="translate(183,375)"/>
<path d="M0 0 C2.99324263 1.0975223 3.84610901 1.67682892 5.25 4.625 C5.4975 5.40875 5.745 6.1925 6 7 C5.34 7.66 4.68 8.32 4 9 C0 2.25 0 2.25 0 0 Z " fill="#A5A4EC" transform="translate(127,262)"/>
<path d="M0 0 C2.9375 0.75 2.9375 0.75 4.9375 2.75 C1.3075 2.42 -2.3225 2.09 -6.0625 1.75 C-3.0625 -0.25 -3.0625 -0.25 0 0 Z " fill="#9B9BE9" transform="translate(267.0625,11.25)"/>
<path d="M0 0 C3.36591866 1.44253657 5.51047079 3.33264727 8 6 C7.01 6.495 7.01 6.495 6 7 C6 6.34 6 5.68 6 5 C5.38125 4.9175 4.7625 4.835 4.125 4.75 C2 4 2 4 0.75 1.9375 C0.5025 1.298125 0.255 0.65875 0 0 Z " fill="#A4A4EB" transform="translate(184,293)"/>
<path d="M0 0 C0.33 0.66 0.66 1.32 1 2 C1.66 2 2.32 2 3 2 C2.25 6.75 2.25 6.75 0 9 C0 6.03 0 3.06 0 0 Z " fill="#8D8DEB" transform="translate(371,256)"/>
<path d="M0 0 C0.66 0 1.32 0 2 0 C2.66 1.98 3.32 3.96 4 6 C2.68 6 1.36 6 0 6 C0 4.02 0 2.04 0 0 Z " fill="#9293ED" transform="translate(145,244)"/>
</svg>
