<?xml version="1.0" standalone="no"?>
<!DOCTYPE svg PUBLIC "-//W3C//DTD SVG 20010904//EN"
 "http://www.w3.org/TR/2001/REC-SVG-20010904/DTD/svg10.dtd">
<svg version="1.0" xmlns="http://www.w3.org/2000/svg"
 width="512.000000pt" height="512.000000pt" viewBox="0 0 512.000000 512.000000"
 preserveAspectRatio="xMidYMid meet">

<g transform="translate(0.000000,512.000000) scale(0.100000,-0.100000)"
fill="#000000" stroke="none">
<path d="M692 4191 c-125 -31 -216 -83 -312 -180 -98 -99 -149 -186 -180 -307
-19 -74 -20 -115 -20 -1144 0 -1029 1 -1070 20 -1144 31 -121 82 -208 180
-307 70 -71 101 -94 170 -127 162 -77 19 -72 2010 -72 1991 0 1848 -5 2010 72
69 33 100 56 170 127 98 99 149 186 180 307 19 74 20 115 20 1144 0 1029 -1
1070 -20 1144 -31 121 -82 208 -180 306 -68 69 -102 94 -170 127 -161 78 -16
73 -2017 72 -1682 0 -1792 -2 -1861 -18z m3711 -290 c112 -44 207 -147 239
-256 7 -22 12 -101 13 -175 l0 -135 -2095 0 -2095 0 -3 105 c-5 180 26 279
119 372 56 56 137 97 213 108 28 4 839 7 1801 6 l1750 -1 58 -24z m257 -1596
c0 -513 -3 -760 -11 -797 -35 -163 -165 -285 -332 -309 -82 -11 -3432 -11
-3514 0 -167 24 -297 146 -332 309 -8 37 -11 284 -11 797 l0 745 2100 0 2100
0 0 -745z"/>
<path d="M3723 1944 c-97 -48 -96 -202 1 -248 28 -13 71 -16 238 -16 178 0
208 2 237 18 93 50 93 194 0 244 -29 16 -59 18 -239 18 -167 0 -211 -3 -237
-16z"/>
</g>
</svg>
