<?xml version="1.0" standalone="no"?>
<!DOCTYPE svg PUBLIC "-//W3C//DTD SVG 20010904//EN"
 "http://www.w3.org/TR/2001/REC-SVG-20010904/DTD/svg10.dtd">
<svg version="1.0" xmlns="http://www.w3.org/2000/svg"
 width="512.000000pt" height="512.000000pt" viewBox="0 0 512.000000 512.000000"
 preserveAspectRatio="xMidYMid meet">

<g transform="translate(0.000000,512.000000) scale(0.100000,-0.100000)"
fill="#000000" stroke="none">
<path d="M2405 5108 c-605 -30 -1209 -303 -1650 -743 -399 -400 -656 -923
-730 -1490 -18 -139 -21 -444 -5 -585 33 -303 114 -580 250 -855 129 -263 279
-472 487 -679 211 -212 411 -354 698 -499 229 -115 456 -186 730 -229 201 -31
549 -31 750 0 434 68 820 230 1172 493 125 94 397 366 490 489 217 291 371
617 451 955 53 221 66 343 66 600 0 257 -19 416 -73 620 -194 731 -684 1333
-1356 1665 -399 198 -815 282 -1280 258z m588 -1098 l431 -300 588 0 588 0 0
-250 0 -250 -60 0 -60 0 0 -795 0 -795 60 0 60 0 0 -195 0 -195 -374 0 -375 0
-3 -48 -3 -47 -1285 0 -1285 0 -3 47 -3 48 -380 0 -379 0 0 200 0 200 65 0 65
0 0 790 0 790 -65 0 -65 0 0 250 0 250 593 0 594 0 429 300 c236 164 431 299
433 300 2 0 197 -135 434 -300z"/>
<path d="M2556 3988 c-8 -30 -8 -632 0 -652 3 -9 15 -16 25 -16 15 0 19 7 19
33 0 29 5 35 40 51 59 26 93 76 98 144 5 72 -21 115 -90 149 l-48 24 0 69 c0
42 4 70 10 70 6 0 29 -9 50 -20 l40 -20 19 32 c11 17 18 35 15 40 -9 14 -58
36 -97 43 -34 7 -37 10 -37 41 0 27 -4 34 -19 34 -11 0 -21 -9 -25 -22z m87
-386 c9 -8 17 -27 17 -42 0 -27 -33 -80 -51 -80 -5 0 -9 34 -9 76 0 79 2 81
43 46z"/>
<path d="M2250 2135 l0 -425 310 0 310 0 0 425 0 425 -310 0 -310 0 0 -425z"/>
</g>
</svg>
